<?xml version="1.0" encoding="utf-8"?>
<!-- Generator: Adobe Illustrator 23.0.3, SVG Export Plug-In . SVG Version: 6.00 Build 0)  -->
<svg version="1.1" id="Capa_1" xmlns="http://www.w3.org/2000/svg" xmlns:xlink="http://www.w3.org/1999/xlink" x="0px" y="0px"
	 viewBox="0 0 448.89 123.28" style="enable-background:new 0 0 448.89 123.28;" xml:space="preserve">
<style type="text/css">
	.st0{fill:#EF7D00;}
	.st1{fill:#643E91;}
	.st2{fill:#FFFFFF;}
</style>
<g>
	<g>
		<path class="st0" d="M52.53,75.94c2.28-0.43,3.89-1.3,4.83-2.61H53.4c-1.89,0-3.49-0.66-4.78-2c-1.3-1.33-1.95-2.93-1.95-4.8
			c0.04-1.25,0.35-2.37,0.93-3.37c0.58-1,1.38-1.8,2.4-2.4c1.02-0.6,2.13-0.9,3.33-0.9h12.79c4.7,0,7.05,2.59,7.05,7.76
			c0,1.5-0.15,3.05-0.45,4.64c-0.3,2-1.04,4.06-2.22,6.18c-1.31,2.34-2.98,4.35-5.01,6.04c-2.03,1.69-4.36,2.97-6.99,3.85
			c-2.63,0.88-5.52,1.32-8.68,1.32c-1.8,0-3.8-0.17-5.99-0.52c-3.01-0.52-5.73-1.41-8.17-2.69c-2.44-1.28-4.57-2.93-6.39-4.95
			c-1.82-2.02-3.28-4.31-4.38-6.89c-1.27-3.05-1.9-6.14-1.9-9.28c0-4.12,1.05-8.03,3.14-11.71c2.1-3.68,5.05-6.73,8.87-9.13
			c4.16-2.6,8.91-3.9,14.24-3.9c0.69,0,1.67,0.04,2.96,0.13c2.3,0.19,4.54,0.63,6.73,1.32c2.1,0.69,4.08,1.59,5.93,2.71
			c3.76,2.47,5.64,5.11,5.64,7.92c0,1.68-0.77,3.19-2.32,4.54c-1.09,0.97-2.42,1.45-3.96,1.45c-1.14,0-2.35-0.27-3.64-0.8h-0.06
			l-2.77-1.45c-0.6-0.34-1.06-0.58-1.38-0.71c-2.69-1.24-5.19-1.87-7.51-1.87c-1.87,0-3.54,0.37-5.02,1.11
			c-1.48,0.74-2.72,1.83-3.71,3.27c-0.99,1.44-1.64,3.1-1.96,4.99c-0.13,0.6-0.19,1.19-0.19,1.77c0,0.75,0.06,1.48,0.19,2.19
			c0.39,1.91,1.07,3.55,2.06,4.91c0.99,1.36,2.24,2.41,3.75,3.16c1.51,0.74,3.23,1.11,5.14,1.11
			C50.28,76.36,51.42,76.22,52.53,75.94z"/>
		<path class="st0" d="M78.08,89.15c-1.48-0.64-2.62-1.54-3.43-2.69c-0.8-1.15-1.21-2.47-1.21-3.98c0-1.12,0.29-2.48,0.87-4.09
			l11.34-29.28c1.05-2.68,2.58-4.75,4.59-6.2c2.01-1.45,4.3-2.17,6.88-2.17c2.6,0,4.9,0.72,6.91,2.17c2.01,1.45,3.54,3.52,4.59,6.2
			l11.34,29.28c0.58,1.7,0.87,3.06,0.87,4.09c0,1.5-0.4,2.83-1.21,3.98c-0.81,1.15-1.95,2.04-3.43,2.69
			c-1.03,0.45-2.08,0.68-3.16,0.68c-1.52,0-2.94-0.48-4.23-1.45c-1.3-0.97-2.26-2.31-2.88-4.03l-0.74-2.19H89.16l-0.8,2.19
			c-0.58,1.67-1.52,3.01-2.82,4c-1.3,0.99-2.73,1.48-4.3,1.48C80.16,89.82,79.11,89.6,78.08,89.15z M93.57,68.89h7.12L97.11,56.1
			L93.57,68.89z"/>
		<path class="st0" d="M129.26,89.66c-2.08-0.04-3.87-0.82-5.36-2.34c-1.49-1.51-2.24-3.32-2.24-5.43V49.17
			c0-1.67,0.32-3.12,0.95-4.33c0.63-1.21,1.52-2.14,2.66-2.77c1.14-0.63,2.51-0.95,4.12-0.95h14.46c3.03,0,5.7,0.47,8.02,1.4
			c2.32,0.93,4.22,2.29,5.7,4.06c1.48,1.77,2.51,3.91,3.09,6.43c0.34,1.55,0.51,2.93,0.51,4.16c0,4.4-1.49,7.91-4.48,10.53
			l-0.26,0.29l-1.51,1.19L154,69.88l5.61,7.44c1.09,1.44,1.64,3.05,1.64,4.83c0,1.18-0.27,2.32-0.82,3.4
			c-0.55,1.08-1.35,2.01-2.4,2.79c-1.37,0.99-2.82,1.48-4.35,1.48c-2.75,0-5.08-1.46-6.99-4.38l-9.86-14.62v11.27
			c0,1.42-0.34,2.69-1.01,3.83c-0.68,1.14-1.58,2.04-2.72,2.72C131.95,89.32,130.68,89.66,129.26,89.66z M136.89,60.19h6.35
			c0.75,0,1.39-0.3,1.92-0.89c0.53-0.59,0.79-1.35,0.79-2.27c-0.02-0.73-0.28-1.34-0.77-1.84c-0.49-0.49-1.05-0.74-1.67-0.74h-6.6
			V60.19z"/>
		<path class="st0" d="M165.88,89.15c-1.48-0.64-2.62-1.54-3.43-2.69c-0.8-1.15-1.21-2.47-1.21-3.98c0-1.12,0.29-2.48,0.87-4.09
			l11.34-29.28c1.05-2.68,2.58-4.75,4.59-6.2c2.01-1.45,4.3-2.17,6.88-2.17c2.6,0,4.9,0.72,6.91,2.17c2.01,1.45,3.54,3.52,4.59,6.2
			l11.34,29.28c0.58,1.7,0.87,3.06,0.87,4.09c0,1.5-0.4,2.83-1.21,3.98c-0.81,1.15-1.95,2.04-3.43,2.69
			c-1.03,0.45-2.08,0.68-3.16,0.68c-1.52,0-2.94-0.48-4.23-1.45c-1.3-0.97-2.26-2.31-2.88-4.03l-0.74-2.19h-16.01l-0.8,2.19
			c-0.58,1.67-1.52,3.01-2.82,4c-1.3,0.99-2.73,1.48-4.3,1.48C167.97,89.82,166.91,89.6,165.88,89.15z M181.38,68.89h7.12
			l-3.57-12.79L181.38,68.89z"/>
		<path class="st0" d="M235.59,75.94c2.28-0.43,3.89-1.3,4.83-2.61h-3.96c-1.89,0-3.49-0.66-4.78-2c-1.3-1.33-1.95-2.93-1.95-4.8
			c0.04-1.25,0.35-2.37,0.93-3.37c0.58-1,1.38-1.8,2.4-2.4c1.02-0.6,2.13-0.9,3.33-0.9h12.79c4.7,0,7.05,2.59,7.05,7.76
			c0,1.5-0.15,3.05-0.45,4.64c-0.3,2-1.04,4.06-2.22,6.18c-1.31,2.34-2.98,4.35-5.01,6.04c-2.03,1.69-4.36,2.97-6.99,3.85
			c-2.63,0.88-5.52,1.32-8.68,1.32c-1.8,0-3.8-0.17-5.99-0.52c-3.01-0.52-5.73-1.41-8.17-2.69s-4.57-2.93-6.39-4.95
			c-1.82-2.02-3.28-4.31-4.38-6.89c-1.27-3.05-1.9-6.14-1.9-9.28c0-4.12,1.05-8.03,3.14-11.71c2.1-3.68,5.05-6.73,8.87-9.13
			c4.16-2.6,8.91-3.9,14.24-3.9c0.69,0,1.67,0.04,2.96,0.13c2.3,0.19,4.54,0.63,6.73,1.32c2.1,0.69,4.08,1.59,5.93,2.71
			c3.76,2.47,5.64,5.11,5.64,7.92c0,1.68-0.77,3.19-2.32,4.54c-1.09,0.97-2.42,1.45-3.96,1.45c-1.14,0-2.35-0.27-3.64-0.8h-0.06
			l-2.77-1.45c-0.6-0.34-1.06-0.58-1.38-0.71c-2.69-1.24-5.19-1.87-7.51-1.87c-1.87,0-3.54,0.37-5.02,1.11
			c-1.48,0.74-2.72,1.83-3.71,3.27c-0.99,1.44-1.64,3.1-1.96,4.99c-0.13,0.6-0.19,1.19-0.19,1.77c0,0.75,0.06,1.48,0.19,2.19
			c0.39,1.91,1.07,3.55,2.06,4.91c0.99,1.36,2.24,2.41,3.75,3.16c1.51,0.74,3.23,1.11,5.14,1.11
			C233.33,76.36,234.47,76.22,235.59,75.94z"/>
		<path class="st0" d="M260.07,84.12c-0.41-0.94-0.61-1.91-0.61-2.9V48.85c0-1.44,0.33-2.75,1-3.93c0.67-1.18,1.58-2.11,2.74-2.78
			c1.16-0.68,2.47-1.02,3.93-1.02h18.14c1.09,0,2.14,0.3,3.14,0.89c1,0.59,1.79,1.39,2.38,2.4c0.59,1.01,0.89,2.14,0.89,3.38
			c0,1.22-0.3,2.35-0.89,3.38c-0.59,1.03-1.38,1.85-2.38,2.45c-1,0.6-2.09,0.9-3.27,0.9h-10.44v4.03h8.6c0.92,0,1.84,0.19,2.74,0.56
			s1.67,0.89,2.32,1.53c0.64,0.56,1.14,1.23,1.48,2.01c0.34,0.78,0.52,1.59,0.52,2.43c0,1.76-0.69,3.3-2.06,4.61
			c-1.48,1.27-3.13,1.9-4.93,1.9h-8.66v4.16h9.92c1.98,0,3.68,0.69,5.12,2.06c0.69,0.58,1.2,1.28,1.55,2.11
			c0.34,0.83,0.51,1.68,0.51,2.56c0,1.82-0.67,3.37-2,4.64c-1.48,1.31-3.15,1.96-4.99,1.96h-17.75c-1.42,0-2.76-0.45-4.04-1.34
			C261.74,86.85,260.76,85.65,260.07,84.12z"/>
	</g>
	<g>
		<path class="st1" d="M403.59,43.34l-29.07-23.79l-34.48,15.57l0.02,0.04l-29.03-3.74l-8.04,62.49l117.97,15.18L429,46.61
			L403.59,43.34z M374.07,22.95l24.06,19.68l-52.64-6.77L374.07,22.95z"/>
		<g>
			<g>
				<path class="st2" d="M319.51,77.17c-1.92-0.77-3.44-1.65-4.57-2.67l3.1-5.02c1.07,0.91,2.34,1.69,3.82,2.35
					c1.48,0.66,2.96,1.09,4.45,1.28c2.83,0.36,4.33-0.15,4.51-1.54c0.09-0.73-0.24-1.32-1-1.78c-0.76-0.45-2-0.99-3.74-1.61
					c-1.91-0.66-3.49-1.32-4.74-1.96c-1.25-0.64-2.28-1.55-3.09-2.72c-0.81-1.17-1.1-2.64-0.87-4.41c0.2-1.56,0.81-2.91,1.84-4.05
					s2.45-1.97,4.27-2.47c1.82-0.51,3.98-0.6,6.48-0.28c1.71,0.22,3.37,0.63,4.99,1.22c1.61,0.59,3,1.33,4.17,2.22l-2.96,5.07
					c-2.31-1.63-4.63-2.6-6.96-2.9c-1.46-0.19-2.56-0.11-3.28,0.23c-0.72,0.34-1.13,0.85-1.22,1.53c-0.09,0.68,0.24,1.24,0.99,1.69
					c0.75,0.44,1.98,0.96,3.7,1.55c1.93,0.67,3.51,1.32,4.75,1.96c1.24,0.64,2.27,1.54,3.09,2.7c0.82,1.16,1.12,2.62,0.89,4.4
					c-0.2,1.53-0.81,2.86-1.84,3.99c-1.03,1.13-2.46,1.95-4.29,2.47c-1.83,0.52-3.98,0.62-6.46,0.3
					C323.43,78.46,321.42,77.94,319.51,77.17z"/>
				<path class="st2" d="M358.6,77.42L347.59,76l-2.69,4.7l-7.51-0.97l14.78-24.06l7.25,0.93l8.24,27.02L360,82.65L358.6,77.42z
					 M357.12,71.81l-2.29-8.6l-4.4,7.74L357.12,71.81z"/>
				<path class="st2" d="M373.03,58.36l7.36,0.95l-2.55,19.81l12.42,1.6l-0.74,5.73l-19.78-2.55L373.03,58.36z"/>
				<path class="st2" d="M414.04,83.92l-0.72,5.58l-20.89-2.69l3.29-25.54l20.41,2.63l-0.72,5.58l-13.13-1.69l-0.55,4.31l11.56,1.49
					l-0.7,5.4l-11.56-1.49l-0.6,4.67L414.04,83.92z"/>
			</g>
		</g>
		<circle class="st0" cx="374.83" cy="21.79" r="4.34"/>
	</g>
</g>
</svg>
